<mxfile host="app.diagrams.net" modified="2022-10-13T14:30:11.489Z" agent="5.0 (Macintosh; Intel Mac OS X 10_15_7) AppleWebKit/537.36 (KHTML, like Gecko) Chrome/105.0.0.0 Safari/537.36" etag="GyR0etdOXxJE23aWQYy5" version="20.4.0" type="github">
  <diagram id="IgEJmsLtar_JePGspQH6" name="Page-1">
    <mxGraphModel dx="1742" dy="564" grid="1" gridSize="10" guides="1" tooltips="1" connect="1" arrows="1" fold="1" page="1" pageScale="1" pageWidth="850" pageHeight="1100" math="0" shadow="0">
      <root>
        <mxCell id="0" />
        <mxCell id="1" parent="0" />
        <object label="Citizen" id="9chctVPXtjelHE0IT71e-2">
          <mxCell style="shape=umlActor;verticalLabelPosition=bottom;verticalAlign=top;html=1;outlineConnect=0;" vertex="1" parent="1">
            <mxGeometry x="20" y="180" width="30" height="60" as="geometry" />
          </mxCell>
        </object>
        <mxCell id="9chctVPXtjelHE0IT71e-3" value="Town Administrator" style="shape=umlActor;verticalLabelPosition=bottom;verticalAlign=top;html=1;outlineConnect=0;noLabel=0;metaEdit=0;" vertex="1" parent="1">
          <mxGeometry x="20" y="470" width="30" height="60" as="geometry" />
        </mxCell>
        <mxCell id="9chctVPXtjelHE0IT71e-6" value="" style="rounded=0;whiteSpace=wrap;html=1;" vertex="1" parent="1">
          <mxGeometry x="110" y="40" width="610" height="720" as="geometry" />
        </mxCell>
        <mxCell id="9chctVPXtjelHE0IT71e-7" value="&lt;b&gt;Project #3: Use Cases&lt;/b&gt;" style="text;html=1;strokeColor=none;fillColor=none;align=center;verticalAlign=middle;whiteSpace=wrap;rounded=0;" vertex="1" parent="1">
          <mxGeometry x="110" y="10" width="150" height="30" as="geometry" />
        </mxCell>
        <mxCell id="9chctVPXtjelHE0IT71e-8" value="" style="ellipse;whiteSpace=wrap;html=1;" vertex="1" parent="1">
          <mxGeometry x="120" y="290" width="120" height="60" as="geometry" />
        </mxCell>
        <mxCell id="9chctVPXtjelHE0IT71e-9" value="View News Posts" style="text;html=1;strokeColor=none;fillColor=none;align=center;verticalAlign=middle;whiteSpace=wrap;rounded=0;" vertex="1" parent="1">
          <mxGeometry x="145" y="305" width="70" height="30" as="geometry" />
        </mxCell>
        <mxCell id="9chctVPXtjelHE0IT71e-11" value="" style="ellipse;whiteSpace=wrap;html=1;" vertex="1" parent="1">
          <mxGeometry x="305" y="155" width="120" height="60" as="geometry" />
        </mxCell>
        <mxCell id="9chctVPXtjelHE0IT71e-12" value="" style="ellipse;whiteSpace=wrap;html=1;" vertex="1" parent="1">
          <mxGeometry x="270" y="80" width="120" height="60" as="geometry" />
        </mxCell>
        <mxCell id="9chctVPXtjelHE0IT71e-14" value="" style="ellipse;whiteSpace=wrap;html=1;" vertex="1" parent="1">
          <mxGeometry x="120" y="50" width="120" height="60" as="geometry" />
        </mxCell>
        <mxCell id="9chctVPXtjelHE0IT71e-15" value="Follow/Unfollow Departments" style="text;html=1;strokeColor=none;fillColor=none;align=center;verticalAlign=middle;whiteSpace=wrap;rounded=0;" vertex="1" parent="1">
          <mxGeometry x="325" y="170" width="80" height="30" as="geometry" />
        </mxCell>
        <mxCell id="9chctVPXtjelHE0IT71e-16" value="View Emergency Status Updates" style="text;html=1;strokeColor=none;fillColor=none;align=center;verticalAlign=middle;whiteSpace=wrap;rounded=0;" vertex="1" parent="1">
          <mxGeometry x="280" y="95" width="100" height="30" as="geometry" />
        </mxCell>
        <mxCell id="9chctVPXtjelHE0IT71e-17" value="Search Departments" style="text;html=1;strokeColor=none;fillColor=none;align=center;verticalAlign=middle;whiteSpace=wrap;rounded=0;" vertex="1" parent="1">
          <mxGeometry x="150" y="65" width="60" height="30" as="geometry" />
        </mxCell>
        <mxCell id="9chctVPXtjelHE0IT71e-19" value="" style="endArrow=classic;html=1;rounded=0;entryX=0;entryY=0.5;entryDx=0;entryDy=0;" edge="1" parent="1" source="9chctVPXtjelHE0IT71e-2" target="9chctVPXtjelHE0IT71e-12">
          <mxGeometry width="50" height="50" relative="1" as="geometry">
            <mxPoint x="80" y="190" as="sourcePoint" />
            <mxPoint x="120" y="150" as="targetPoint" />
          </mxGeometry>
        </mxCell>
        <mxCell id="9chctVPXtjelHE0IT71e-21" value="" style="endArrow=classic;html=1;rounded=0;entryX=0;entryY=0.5;entryDx=0;entryDy=0;" edge="1" parent="1" source="9chctVPXtjelHE0IT71e-2" target="9chctVPXtjelHE0IT71e-14">
          <mxGeometry width="50" height="50" relative="1" as="geometry">
            <mxPoint x="360" y="320" as="sourcePoint" />
            <mxPoint x="410" y="270" as="targetPoint" />
          </mxGeometry>
        </mxCell>
        <mxCell id="9chctVPXtjelHE0IT71e-22" value="" style="endArrow=classic;html=1;rounded=0;entryX=0;entryY=0.5;entryDx=0;entryDy=0;" edge="1" parent="1" source="9chctVPXtjelHE0IT71e-2" target="9chctVPXtjelHE0IT71e-11">
          <mxGeometry width="50" height="50" relative="1" as="geometry">
            <mxPoint x="360" y="320" as="sourcePoint" />
            <mxPoint x="410" y="270" as="targetPoint" />
          </mxGeometry>
        </mxCell>
        <mxCell id="9chctVPXtjelHE0IT71e-23" value="" style="endArrow=classic;html=1;rounded=0;entryX=0.017;entryY=0.35;entryDx=0;entryDy=0;entryPerimeter=0;" edge="1" parent="1" source="9chctVPXtjelHE0IT71e-2" target="9chctVPXtjelHE0IT71e-8">
          <mxGeometry width="50" height="50" relative="1" as="geometry">
            <mxPoint x="360" y="320" as="sourcePoint" />
            <mxPoint x="410" y="270" as="targetPoint" />
          </mxGeometry>
        </mxCell>
        <mxCell id="9chctVPXtjelHE0IT71e-24" value="" style="endArrow=classic;html=1;rounded=0;entryX=0.025;entryY=0.683;entryDx=0;entryDy=0;entryPerimeter=0;" edge="1" parent="1" source="9chctVPXtjelHE0IT71e-3" target="9chctVPXtjelHE0IT71e-8">
          <mxGeometry width="50" height="50" relative="1" as="geometry">
            <mxPoint x="360" y="320" as="sourcePoint" />
            <mxPoint x="410" y="270" as="targetPoint" />
          </mxGeometry>
        </mxCell>
        <mxCell id="9chctVPXtjelHE0IT71e-25" value="Post News" style="ellipse;whiteSpace=wrap;html=1;" vertex="1" parent="1">
          <mxGeometry x="120" y="370" width="120" height="60" as="geometry" />
        </mxCell>
        <mxCell id="9chctVPXtjelHE0IT71e-26" value="Update Emergency Status" style="ellipse;whiteSpace=wrap;html=1;" vertex="1" parent="1">
          <mxGeometry x="120" y="450" width="120" height="60" as="geometry" />
        </mxCell>
        <mxCell id="9chctVPXtjelHE0IT71e-27" value="View Following List" style="ellipse;whiteSpace=wrap;html=1;" vertex="1" parent="1">
          <mxGeometry x="120" y="530" width="120" height="60" as="geometry" />
        </mxCell>
        <mxCell id="9chctVPXtjelHE0IT71e-28" value="Schedule News Post" style="ellipse;whiteSpace=wrap;html=1;" vertex="1" parent="1">
          <mxGeometry x="120" y="610" width="120" height="60" as="geometry" />
        </mxCell>
        <mxCell id="9chctVPXtjelHE0IT71e-29" value="Send Emergency Alert" style="ellipse;whiteSpace=wrap;html=1;" vertex="1" parent="1">
          <mxGeometry x="120" y="690" width="120" height="60" as="geometry" />
        </mxCell>
        <mxCell id="9chctVPXtjelHE0IT71e-30" value="Save Post" style="ellipse;whiteSpace=wrap;html=1;" vertex="1" parent="1">
          <mxGeometry x="300" y="230" width="120" height="60" as="geometry" />
        </mxCell>
        <mxCell id="9chctVPXtjelHE0IT71e-31" value="Comment on Post" style="ellipse;whiteSpace=wrap;html=1;" vertex="1" parent="1">
          <mxGeometry x="340" y="320" width="120" height="60" as="geometry" />
        </mxCell>
        <mxCell id="9chctVPXtjelHE0IT71e-32" value="Login" style="ellipse;whiteSpace=wrap;html=1;" vertex="1" parent="1">
          <mxGeometry x="580" y="390" width="120" height="60" as="geometry" />
        </mxCell>
        <mxCell id="9chctVPXtjelHE0IT71e-34" value="" style="endArrow=classic;html=1;rounded=0;exitX=0;exitY=0.5;exitDx=0;exitDy=0;startArrow=none;" edge="1" parent="1" source="9chctVPXtjelHE0IT71e-79" target="9chctVPXtjelHE0IT71e-8">
          <mxGeometry width="50" height="50" relative="1" as="geometry">
            <mxPoint x="360" y="360" as="sourcePoint" />
            <mxPoint x="410" y="310" as="targetPoint" />
          </mxGeometry>
        </mxCell>
        <mxCell id="9chctVPXtjelHE0IT71e-35" value="" style="endArrow=classic;html=1;rounded=0;exitX=0;exitY=0.5;exitDx=0;exitDy=0;entryX=0.958;entryY=0.675;entryDx=0;entryDy=0;entryPerimeter=0;startArrow=none;" edge="1" parent="1" source="9chctVPXtjelHE0IT71e-81" target="9chctVPXtjelHE0IT71e-8">
          <mxGeometry width="50" height="50" relative="1" as="geometry">
            <mxPoint x="360" y="360" as="sourcePoint" />
            <mxPoint x="240" y="320" as="targetPoint" />
          </mxGeometry>
        </mxCell>
        <mxCell id="9chctVPXtjelHE0IT71e-37" value="" style="endArrow=classic;html=1;rounded=0;entryX=0.033;entryY=0.742;entryDx=0;entryDy=0;entryPerimeter=0;" edge="1" parent="1" source="9chctVPXtjelHE0IT71e-3" target="9chctVPXtjelHE0IT71e-25">
          <mxGeometry width="50" height="50" relative="1" as="geometry">
            <mxPoint x="360" y="400" as="sourcePoint" />
            <mxPoint x="410" y="350" as="targetPoint" />
          </mxGeometry>
        </mxCell>
        <mxCell id="9chctVPXtjelHE0IT71e-38" value="" style="endArrow=classic;html=1;rounded=0;entryX=0;entryY=0.5;entryDx=0;entryDy=0;" edge="1" parent="1" source="9chctVPXtjelHE0IT71e-3" target="9chctVPXtjelHE0IT71e-26">
          <mxGeometry width="50" height="50" relative="1" as="geometry">
            <mxPoint x="360" y="400" as="sourcePoint" />
            <mxPoint x="410" y="350" as="targetPoint" />
          </mxGeometry>
        </mxCell>
        <mxCell id="9chctVPXtjelHE0IT71e-39" value="" style="endArrow=classic;html=1;rounded=0;entryX=0;entryY=0.5;entryDx=0;entryDy=0;" edge="1" parent="1" source="9chctVPXtjelHE0IT71e-3" target="9chctVPXtjelHE0IT71e-27">
          <mxGeometry width="50" height="50" relative="1" as="geometry">
            <mxPoint x="370" y="410" as="sourcePoint" />
            <mxPoint x="420" y="360" as="targetPoint" />
          </mxGeometry>
        </mxCell>
        <mxCell id="9chctVPXtjelHE0IT71e-40" value="" style="endArrow=classic;html=1;rounded=0;entryX=0;entryY=0.5;entryDx=0;entryDy=0;" edge="1" parent="1" source="9chctVPXtjelHE0IT71e-3" target="9chctVPXtjelHE0IT71e-28">
          <mxGeometry width="50" height="50" relative="1" as="geometry">
            <mxPoint x="50" y="500" as="sourcePoint" />
            <mxPoint x="430" y="370" as="targetPoint" />
          </mxGeometry>
        </mxCell>
        <mxCell id="9chctVPXtjelHE0IT71e-41" value="" style="endArrow=classic;html=1;rounded=0;entryX=0;entryY=0.5;entryDx=0;entryDy=0;" edge="1" parent="1" source="9chctVPXtjelHE0IT71e-3" target="9chctVPXtjelHE0IT71e-29">
          <mxGeometry width="50" height="50" relative="1" as="geometry">
            <mxPoint x="390" y="430" as="sourcePoint" />
            <mxPoint x="440" y="380" as="targetPoint" />
          </mxGeometry>
        </mxCell>
        <mxCell id="9chctVPXtjelHE0IT71e-42" value="" style="endArrow=classic;html=1;rounded=0;exitX=1;exitY=0.5;exitDx=0;exitDy=0;entryX=0;entryY=0.5;entryDx=0;entryDy=0;startArrow=none;" edge="1" parent="1" source="9chctVPXtjelHE0IT71e-52" target="9chctVPXtjelHE0IT71e-32">
          <mxGeometry width="50" height="50" relative="1" as="geometry">
            <mxPoint x="400" y="440" as="sourcePoint" />
            <mxPoint x="450" y="390" as="targetPoint" />
          </mxGeometry>
        </mxCell>
        <mxCell id="9chctVPXtjelHE0IT71e-43" value="" style="endArrow=classic;html=1;rounded=0;exitX=1;exitY=0.5;exitDx=0;exitDy=0;startArrow=none;" edge="1" parent="1" source="9chctVPXtjelHE0IT71e-65" target="9chctVPXtjelHE0IT71e-32">
          <mxGeometry width="50" height="50" relative="1" as="geometry">
            <mxPoint x="410" y="450" as="sourcePoint" />
            <mxPoint x="460" y="400" as="targetPoint" />
          </mxGeometry>
        </mxCell>
        <mxCell id="9chctVPXtjelHE0IT71e-44" value="" style="endArrow=classic;html=1;rounded=0;exitX=1;exitY=0.5;exitDx=0;exitDy=0;startArrow=none;" edge="1" parent="1" source="9chctVPXtjelHE0IT71e-67" target="9chctVPXtjelHE0IT71e-32">
          <mxGeometry width="50" height="50" relative="1" as="geometry">
            <mxPoint x="420" y="460" as="sourcePoint" />
            <mxPoint x="470" y="410" as="targetPoint" />
          </mxGeometry>
        </mxCell>
        <mxCell id="9chctVPXtjelHE0IT71e-45" value="" style="endArrow=classic;html=1;rounded=0;exitX=1;exitY=0.5;exitDx=0;exitDy=0;startArrow=none;" edge="1" parent="1" source="9chctVPXtjelHE0IT71e-69" target="9chctVPXtjelHE0IT71e-32">
          <mxGeometry width="50" height="50" relative="1" as="geometry">
            <mxPoint x="430" y="470" as="sourcePoint" />
            <mxPoint x="480" y="420" as="targetPoint" />
          </mxGeometry>
        </mxCell>
        <mxCell id="9chctVPXtjelHE0IT71e-46" value="" style="endArrow=classic;html=1;rounded=0;exitX=1;exitY=0.5;exitDx=0;exitDy=0;startArrow=none;" edge="1" parent="1" source="9chctVPXtjelHE0IT71e-71" target="9chctVPXtjelHE0IT71e-32">
          <mxGeometry width="50" height="50" relative="1" as="geometry">
            <mxPoint x="440" y="480" as="sourcePoint" />
            <mxPoint x="490" y="430" as="targetPoint" />
          </mxGeometry>
        </mxCell>
        <mxCell id="9chctVPXtjelHE0IT71e-47" value="" style="endArrow=classic;html=1;rounded=0;exitX=1;exitY=0.5;exitDx=0;exitDy=0;startArrow=none;" edge="1" parent="1" source="9chctVPXtjelHE0IT71e-73" target="9chctVPXtjelHE0IT71e-32">
          <mxGeometry width="50" height="50" relative="1" as="geometry">
            <mxPoint x="450" y="490" as="sourcePoint" />
            <mxPoint x="500" y="440" as="targetPoint" />
          </mxGeometry>
        </mxCell>
        <mxCell id="9chctVPXtjelHE0IT71e-48" value="" style="endArrow=classic;html=1;rounded=0;exitX=1;exitY=0.5;exitDx=0;exitDy=0;startArrow=none;" edge="1" parent="1" source="9chctVPXtjelHE0IT71e-75" target="9chctVPXtjelHE0IT71e-32">
          <mxGeometry width="50" height="50" relative="1" as="geometry">
            <mxPoint x="460" y="500" as="sourcePoint" />
            <mxPoint x="510" y="450" as="targetPoint" />
          </mxGeometry>
        </mxCell>
        <mxCell id="9chctVPXtjelHE0IT71e-49" value="" style="endArrow=classic;html=1;rounded=0;startArrow=none;" edge="1" parent="1" source="9chctVPXtjelHE0IT71e-77" target="9chctVPXtjelHE0IT71e-32">
          <mxGeometry width="50" height="50" relative="1" as="geometry">
            <mxPoint x="470" y="510" as="sourcePoint" />
            <mxPoint x="520" y="460" as="targetPoint" />
          </mxGeometry>
        </mxCell>
        <mxCell id="9chctVPXtjelHE0IT71e-50" value="Two-Factor Verification" style="shape=umlActor;verticalLabelPosition=bottom;verticalAlign=top;html=1;outlineConnect=0;" vertex="1" parent="1">
          <mxGeometry x="780" y="510" width="30" height="60" as="geometry" />
        </mxCell>
        <mxCell id="9chctVPXtjelHE0IT71e-51" value="" style="endArrow=classic;html=1;rounded=0;exitX=1;exitY=0.5;exitDx=0;exitDy=0;" edge="1" parent="1" source="9chctVPXtjelHE0IT71e-29" target="9chctVPXtjelHE0IT71e-50">
          <mxGeometry width="50" height="50" relative="1" as="geometry">
            <mxPoint x="480" y="520" as="sourcePoint" />
            <mxPoint x="530" y="470" as="targetPoint" />
          </mxGeometry>
        </mxCell>
        <mxCell id="9chctVPXtjelHE0IT71e-52" value="Includes" style="text;html=1;strokeColor=none;fillColor=none;align=center;verticalAlign=middle;whiteSpace=wrap;rounded=0;" vertex="1" parent="1">
          <mxGeometry x="360" y="390" width="60" height="30" as="geometry" />
        </mxCell>
        <mxCell id="9chctVPXtjelHE0IT71e-64" value="" style="endArrow=none;html=1;rounded=0;exitX=1;exitY=0.5;exitDx=0;exitDy=0;entryX=0;entryY=0.5;entryDx=0;entryDy=0;" edge="1" parent="1" source="9chctVPXtjelHE0IT71e-25" target="9chctVPXtjelHE0IT71e-52">
          <mxGeometry width="50" height="50" relative="1" as="geometry">
            <mxPoint x="240" y="400" as="sourcePoint" />
            <mxPoint x="580" y="420" as="targetPoint" />
          </mxGeometry>
        </mxCell>
        <mxCell id="9chctVPXtjelHE0IT71e-65" value="Includes" style="text;html=1;strokeColor=none;fillColor=none;align=center;verticalAlign=middle;whiteSpace=wrap;rounded=0;" vertex="1" parent="1">
          <mxGeometry x="340" y="450" width="60" height="30" as="geometry" />
        </mxCell>
        <mxCell id="9chctVPXtjelHE0IT71e-66" value="" style="endArrow=none;html=1;rounded=0;exitX=1;exitY=0.5;exitDx=0;exitDy=0;" edge="1" parent="1" source="9chctVPXtjelHE0IT71e-26" target="9chctVPXtjelHE0IT71e-65">
          <mxGeometry width="50" height="50" relative="1" as="geometry">
            <mxPoint x="240" y="480" as="sourcePoint" />
            <mxPoint x="582.5304228867312" y="428.6204365669903" as="targetPoint" />
          </mxGeometry>
        </mxCell>
        <mxCell id="9chctVPXtjelHE0IT71e-67" value="Includes" style="text;html=1;strokeColor=none;fillColor=none;align=center;verticalAlign=middle;whiteSpace=wrap;rounded=0;" vertex="1" parent="1">
          <mxGeometry x="345" y="500" width="60" height="30" as="geometry" />
        </mxCell>
        <mxCell id="9chctVPXtjelHE0IT71e-68" value="" style="endArrow=none;html=1;rounded=0;exitX=1;exitY=0.5;exitDx=0;exitDy=0;" edge="1" parent="1" source="9chctVPXtjelHE0IT71e-27" target="9chctVPXtjelHE0IT71e-67">
          <mxGeometry width="50" height="50" relative="1" as="geometry">
            <mxPoint x="240" y="560" as="sourcePoint" />
            <mxPoint x="590.8460847688575" y="437.2038703308997" as="targetPoint" />
          </mxGeometry>
        </mxCell>
        <mxCell id="9chctVPXtjelHE0IT71e-69" value="Includes" style="text;html=1;strokeColor=none;fillColor=none;align=center;verticalAlign=middle;whiteSpace=wrap;rounded=0;" vertex="1" parent="1">
          <mxGeometry x="360" y="545" width="60" height="30" as="geometry" />
        </mxCell>
        <mxCell id="9chctVPXtjelHE0IT71e-70" value="" style="endArrow=none;html=1;rounded=0;exitX=1;exitY=0.5;exitDx=0;exitDy=0;" edge="1" parent="1" source="9chctVPXtjelHE0IT71e-28" target="9chctVPXtjelHE0IT71e-69">
          <mxGeometry width="50" height="50" relative="1" as="geometry">
            <mxPoint x="240" y="640" as="sourcePoint" />
            <mxPoint x="599.6396323602094" y="442.1982022018851" as="targetPoint" />
          </mxGeometry>
        </mxCell>
        <mxCell id="9chctVPXtjelHE0IT71e-71" value="Includes" style="text;html=1;strokeColor=none;fillColor=none;align=center;verticalAlign=middle;whiteSpace=wrap;rounded=0;" vertex="1" parent="1">
          <mxGeometry x="350" y="600" width="60" height="30" as="geometry" />
        </mxCell>
        <mxCell id="9chctVPXtjelHE0IT71e-72" value="" style="endArrow=none;html=1;rounded=0;exitX=1;exitY=0.5;exitDx=0;exitDy=0;" edge="1" parent="1" source="9chctVPXtjelHE0IT71e-29" target="9chctVPXtjelHE0IT71e-71">
          <mxGeometry width="50" height="50" relative="1" as="geometry">
            <mxPoint x="240" y="720" as="sourcePoint" />
            <mxPoint x="606.7179882264863" y="444.96150883013524" as="targetPoint" />
          </mxGeometry>
        </mxCell>
        <mxCell id="9chctVPXtjelHE0IT71e-73" value="Includes" style="text;html=1;strokeColor=none;fillColor=none;align=center;verticalAlign=middle;whiteSpace=wrap;rounded=0;" vertex="1" parent="1">
          <mxGeometry x="480" y="360" width="60" height="30" as="geometry" />
        </mxCell>
        <mxCell id="9chctVPXtjelHE0IT71e-74" value="" style="endArrow=none;html=1;rounded=0;exitX=1;exitY=0.5;exitDx=0;exitDy=0;" edge="1" parent="1" source="9chctVPXtjelHE0IT71e-31" target="9chctVPXtjelHE0IT71e-73">
          <mxGeometry width="50" height="50" relative="1" as="geometry">
            <mxPoint x="420" y="340" as="sourcePoint" />
            <mxPoint x="591.4758349418116" y="402.35484906974966" as="targetPoint" />
          </mxGeometry>
        </mxCell>
        <mxCell id="9chctVPXtjelHE0IT71e-75" value="Includes" style="text;html=1;strokeColor=none;fillColor=none;align=center;verticalAlign=middle;whiteSpace=wrap;rounded=0;" vertex="1" parent="1">
          <mxGeometry x="460" y="305" width="60" height="30" as="geometry" />
        </mxCell>
        <mxCell id="9chctVPXtjelHE0IT71e-76" value="" style="endArrow=none;html=1;rounded=0;exitX=1;exitY=0.5;exitDx=0;exitDy=0;" edge="1" parent="1" source="9chctVPXtjelHE0IT71e-30" target="9chctVPXtjelHE0IT71e-75">
          <mxGeometry width="50" height="50" relative="1" as="geometry">
            <mxPoint x="420" y="270" as="sourcePoint" />
            <mxPoint x="604.5181801823674" y="395.80785012434126" as="targetPoint" />
          </mxGeometry>
        </mxCell>
        <mxCell id="9chctVPXtjelHE0IT71e-77" value="Includes" style="text;html=1;strokeColor=none;fillColor=none;align=center;verticalAlign=middle;whiteSpace=wrap;rounded=0;" vertex="1" parent="1">
          <mxGeometry x="460" y="270" width="60" height="30" as="geometry" />
        </mxCell>
        <mxCell id="9chctVPXtjelHE0IT71e-78" value="" style="endArrow=none;html=1;rounded=0;" edge="1" parent="1" source="9chctVPXtjelHE0IT71e-11" target="9chctVPXtjelHE0IT71e-77">
          <mxGeometry width="50" height="50" relative="1" as="geometry">
            <mxPoint x="395.2476756407764" y="210.9088697086977" as="sourcePoint" />
            <mxPoint x="609.6992563705571" y="394.1066372621124" as="targetPoint" />
          </mxGeometry>
        </mxCell>
        <mxCell id="9chctVPXtjelHE0IT71e-79" value="Extends" style="text;html=1;strokeColor=none;fillColor=none;align=center;verticalAlign=middle;whiteSpace=wrap;rounded=0;labelBackgroundColor=none;" vertex="1" parent="1">
          <mxGeometry x="240" y="270" width="60" height="30" as="geometry" />
        </mxCell>
        <mxCell id="9chctVPXtjelHE0IT71e-80" value="" style="endArrow=none;html=1;rounded=0;exitX=0;exitY=0.5;exitDx=0;exitDy=0;" edge="1" parent="1" source="9chctVPXtjelHE0IT71e-30" target="9chctVPXtjelHE0IT71e-79">
          <mxGeometry width="50" height="50" relative="1" as="geometry">
            <mxPoint x="300" y="270" as="sourcePoint" />
            <mxPoint x="226.0932767758427" y="300.79446801006566" as="targetPoint" />
          </mxGeometry>
        </mxCell>
        <mxCell id="9chctVPXtjelHE0IT71e-81" value="Extends" style="text;html=1;strokeColor=none;fillColor=none;align=center;verticalAlign=middle;whiteSpace=wrap;rounded=0;labelBackgroundColor=none;" vertex="1" parent="1">
          <mxGeometry x="260" y="330" width="60" height="30" as="geometry" />
        </mxCell>
        <mxCell id="9chctVPXtjelHE0IT71e-82" value="" style="endArrow=none;html=1;rounded=0;exitX=0;exitY=0.5;exitDx=0;exitDy=0;entryX=0.958;entryY=0.675;entryDx=0;entryDy=0;entryPerimeter=0;" edge="1" parent="1" source="9chctVPXtjelHE0IT71e-31" target="9chctVPXtjelHE0IT71e-81">
          <mxGeometry width="50" height="50" relative="1" as="geometry">
            <mxPoint x="340" y="350" as="sourcePoint" />
            <mxPoint x="234.96000000000004" y="330.5" as="targetPoint" />
          </mxGeometry>
        </mxCell>
      </root>
    </mxGraphModel>
  </diagram>
</mxfile>
